<?xml version="1.0" standalone="no"?><!DOCTYPE svg PUBLIC "-//W3C//DTD SVG 1.1//EN" "http://www.w3.org/Graphics/SVG/1.1/DTD/svg11.dtd"><svg t="1498549890292" class="icon" style="" viewBox="0 0 1024 1024" version="1.1" xmlns="http://www.w3.org/2000/svg" p-id="2529" xmlns:xlink="http://www.w3.org/1999/xlink" width="32" height="32"><defs><style type="text/css"></style></defs><path d="M514.048 570.368z m-244.736 0c0 135.168 109.568 244.736 244.736 244.736s244.736-109.568 244.736-244.736-109.568-244.736-244.736-244.736-244.736 109.568-244.736 244.736" fill="#51E582" p-id="2530"></path><path d="M279.552 545.792c0 128 105.472 230.4 234.496 230.4s234.496-103.424 234.496-230.4-105.472-231.424-234.496-231.424-234.496 103.424-234.496 231.424z" fill="#FFFFFF" p-id="2531"></path><path d="M514.048 826.368c-34.816 0-67.584-7.168-99.328-20.48-30.72-13.312-58.368-31.744-80.896-55.296-23.552-23.552-41.984-51.2-55.296-80.896-13.312-31.744-20.48-65.536-20.48-99.328 0-34.816 7.168-67.584 20.48-99.328 13.312-30.72 31.744-58.368 55.296-80.896 23.552-23.552 51.2-41.984 80.896-55.296 31.744-13.312 65.536-20.48 99.328-20.48 34.816 0 67.584 7.168 99.328 20.48 30.72 13.312 58.368 31.744 80.896 55.296 23.552 23.552 41.984 51.2 55.296 80.896 13.312 31.744 20.48 65.536 20.48 99.328 0 34.816-7.168 67.584-20.48 99.328-13.312 30.72-31.744 58.368-55.296 80.896-23.552 23.552-51.2 41.984-80.896 55.296-31.744 13.312-64.512 20.48-99.328 20.48z m0-490.496c-31.744 0-62.464 6.144-91.136 18.432-27.648 12.288-53.248 28.672-74.752 50.176-21.504 21.504-37.888 46.08-50.176 74.752-12.288 28.672-18.432 59.392-18.432 91.136 0 31.744 6.144 62.464 18.432 91.136 12.288 27.648 28.672 53.248 50.176 74.752s46.08 37.888 74.752 50.176c28.672 12.288 59.392 18.432 91.136 18.432s62.464-6.144 91.136-18.432c27.648-12.288 53.248-28.672 74.752-50.176 21.504-21.504 37.888-46.08 50.176-74.752 12.288-28.672 18.432-59.392 18.432-91.136 0-31.744-6.144-62.464-18.432-91.136-12.288-27.648-28.672-53.248-50.176-74.752-21.504-21.504-46.08-37.888-74.752-50.176-28.672-12.288-59.392-18.432-91.136-18.432z" fill="#24B35D" p-id="2532"></path><path d="M361.472 458.752c0 8.192 13.312 15.36 29.696 14.336 16.384-1.024 28.672-8.192 27.648-16.384 0-5.12-6.144-10.24-15.36-13.312-9.216-2.048-20.48-2.048-28.672 1.024-8.192 3.072-13.312 8.192-13.312 14.336zM609.28 448.512c0 8.192 13.312 15.36 29.696 14.336 16.384-1.024 28.672-8.192 27.648-16.384 0-8.192-13.312-15.36-29.696-14.336-15.36 0-28.672 7.168-27.648 16.384z" fill="#94F7B0" p-id="2533"></path><path d="M480.256 452.608v1.024c0 23.552 15.36 44.032 33.792 44.032s33.792-19.456 33.792-44.032v-1.024h-67.584z" fill="#24B35D" p-id="2534"></path><path d="M514.048 465.92c-11.264 0-20.48 7.168-24.576 17.408 6.144 8.192 15.36 13.312 24.576 13.312s18.432-5.12 24.576-13.312c-4.096-10.24-13.312-17.408-24.576-17.408z" fill="#94F7B0" p-id="2535"></path><path d="M435.2 432.128c-4.096 0-8.192-2.048-10.24-6.144-3.072-5.12 0-12.288 5.12-14.336l12.288-6.144-8.192-4.096c-5.12-3.072-7.168-9.216-5.12-14.336 3.072-5.12 9.216-7.168 14.336-5.12l28.672 14.336c4.096 2.048 6.144 6.144 6.144 10.24s-2.048 8.192-6.144 10.24l-32.768 15.36h-4.096z m157.696 0c-2.048 0-3.072 0-5.12-1.024l-32.768-15.36c-4.096-2.048-6.144-6.144-6.144-10.24s2.048-8.192 6.144-10.24l28.672-14.336c5.12-3.072 12.288 0 14.336 5.12 3.072 5.12 0 12.288-5.12 14.336l-8.192 4.096 12.288 6.144c5.12 3.072 8.192 9.216 5.12 14.336-1.024 5.12-5.12 7.168-9.216 7.168z" fill="#24B35D" p-id="2536"></path></svg>