<?xml version="1.0" standalone="no"?><!DOCTYPE svg PUBLIC "-//W3C//DTD SVG 1.1//EN" "http://www.w3.org/Graphics/SVG/1.1/DTD/svg11.dtd"><svg t="1498550139461" class="icon" style="" viewBox="0 0 1024 1024" version="1.1" xmlns="http://www.w3.org/2000/svg" p-id="789" xmlns:xlink="http://www.w3.org/1999/xlink" width="32" height="32"><defs><style type="text/css"></style></defs><path d="M267.264 512c0 135.168 109.568 244.736 244.736 244.736S756.736 647.168 756.736 512 647.168 267.264 512 267.264 267.264 376.832 267.264 512" fill="#51E582" p-id="790"></path><path d="M277.504 487.424C277.504 614.4 382.976 717.824 512 717.824S746.496 614.4 746.496 487.424 642.048 256 512 256 277.504 359.424 277.504 487.424z" fill="#FFFFFF" p-id="791"></path><path d="M512 768c-34.816 0-67.584-7.168-99.328-20.48-30.72-13.312-58.368-31.744-80.896-55.296-23.552-23.552-41.984-51.2-55.296-80.896-13.312-31.744-20.48-65.536-20.48-99.328s7.168-67.584 20.48-99.328c13.312-30.72 31.744-58.368 55.296-80.896 23.552-23.552 51.2-41.984 80.896-55.296 31.744-13.312 65.536-20.48 99.328-20.48 34.816 0 67.584 7.168 99.328 20.48 30.72 13.312 58.368 31.744 80.896 55.296 23.552 23.552 41.984 51.2 55.296 80.896 13.312 31.744 20.48 65.536 20.48 99.328s-7.168 67.584-20.48 99.328c-13.312 30.72-31.744 58.368-55.296 80.896-23.552 23.552-51.2 41.984-80.896 55.296-30.72 13.312-64.512 20.48-99.328 20.48z m0-490.496c-31.744 0-62.464 6.144-91.136 18.432-27.648 12.288-53.248 28.672-74.752 50.176-21.504 21.504-37.888 46.08-50.176 74.752-12.288 28.672-18.432 59.392-18.432 91.136s6.144 62.464 18.432 91.136c12.288 27.648 28.672 53.248 50.176 74.752s46.08 37.888 74.752 50.176c28.672 12.288 59.392 18.432 91.136 18.432 31.744 0 62.464-6.144 91.136-18.432 27.648-12.288 53.248-28.672 74.752-50.176 21.504-21.504 37.888-46.08 50.176-74.752 12.288-28.672 18.432-59.392 18.432-91.136s-6.144-62.464-18.432-91.136c-12.288-27.648-28.672-53.248-50.176-74.752-21.504-21.504-46.08-37.888-74.752-50.176-28.672-12.288-59.392-18.432-91.136-18.432z" fill="#24B35D" p-id="792"></path><path d="M423.936 337.92c0 11.264 11.264 20.48 24.576 20.48s24.576-9.216 24.576-20.48-11.264-20.48-24.576-20.48-24.576 8.192-24.576 20.48zM551.936 337.92c0 11.264 11.264 20.48 24.576 20.48 13.312 0 24.576-9.216 24.576-20.48s-11.264-20.48-24.576-20.48c-14.336-1.024-24.576 8.192-24.576 20.48z" fill="#24B35D" p-id="793"></path><path d="M339.968 407.552c0 5.12 6.144 10.24 16.384 12.288 10.24 2.048 22.528 2.048 32.768-1.024 10.24-3.072 16.384-8.192 15.36-14.336 0-5.12-6.144-10.24-16.384-12.288-10.24-2.048-22.528-2.048-32.768 1.024-9.216 3.072-15.36 8.192-15.36 14.336zM619.52 396.288c0 5.12 6.144 10.24 16.384 12.288 10.24 2.048 22.528 2.048 32.768-1.024 10.24-3.072 16.384-8.192 15.36-14.336 0-5.12-6.144-10.24-16.384-12.288-10.24-2.048-22.528-2.048-32.768 1.024-10.24 3.072-15.36 8.192-15.36 14.336z" fill="#94F7B0" p-id="794"></path><path d="M440.32 376.832v8.192c1.024 36.864 32.768 65.536 69.632 64.512h10.24c36.864-1.024 65.536-32.768 64.512-69.632 0-3.072 0-5.12-1.024-8.192l-143.36 5.12z" fill="#24B35D" p-id="795"></path><path d="M507.904 409.6c-15.36 0-27.648 12.288-33.792 30.72 10.24 6.144 22.528 9.216 35.84 9.216h10.24c11.264 0 22.528-4.096 31.744-9.216-8.192-18.432-21.504-30.72-36.864-29.696l-7.168-1.024z" fill="#94F7B0" p-id="796"></path></svg>