<?xml version="1.0" standalone="no"?><!DOCTYPE svg PUBLIC "-//W3C//DTD SVG 1.1//EN" "http://www.w3.org/Graphics/SVG/1.1/DTD/svg11.dtd"><svg t="1498549886338" class="icon" style="" viewBox="0 0 1024 1024" version="1.1" xmlns="http://www.w3.org/2000/svg" p-id="2395" xmlns:xlink="http://www.w3.org/1999/xlink" width="32" height="32"><defs><style type="text/css"></style></defs><path d="M532.48 534.528z m-244.736 0c0 135.168 109.568 244.736 244.736 244.736s245.76-109.568 245.76-244.736-110.592-245.76-245.76-245.76-244.736 110.592-244.736 245.76" fill="#51E582" p-id="2396"></path><path d="M297.984 509.952c0 128 105.472 230.4 234.496 230.4s234.496-103.424 234.496-230.4S662.528 278.528 532.48 278.528 297.984 381.952 297.984 509.952z" fill="#FFFFFF" p-id="2397"></path><path d="M532.48 790.528c-34.816 0-67.584-7.168-99.328-20.48-30.72-13.312-58.368-31.744-80.896-55.296-23.552-23.552-41.984-51.2-55.296-80.896-13.312-31.744-20.48-65.536-20.48-99.328 0-34.816 7.168-67.584 20.48-99.328 13.312-30.72 31.744-58.368 55.296-80.896 23.552-23.552 51.2-41.984 80.896-55.296 31.744-13.312 65.536-20.48 99.328-20.48 34.816 0 67.584 7.168 99.328 20.48 30.72 13.312 58.368 31.744 80.896 55.296 23.552 23.552 41.984 51.2 55.296 80.896 13.312 31.744 20.48 65.536 20.48 99.328 0 34.816-7.168 67.584-20.48 99.328-13.312 30.72-31.744 58.368-55.296 80.896-23.552 23.552-51.2 41.984-80.896 55.296-30.72 13.312-64.512 20.48-99.328 20.48z m0-490.496c-31.744 0-62.464 6.144-91.136 18.432-27.648 12.288-53.248 28.672-74.752 50.176s-37.888 46.08-50.176 74.752c-12.288 28.672-18.432 59.392-18.432 91.136 0 31.744 6.144 62.464 18.432 91.136 12.288 27.648 28.672 53.248 50.176 74.752s46.08 37.888 74.752 50.176C471.04 761.856 500.736 768 532.48 768s62.464-6.144 91.136-18.432c27.648-12.288 53.248-28.672 74.752-50.176 21.504-21.504 37.888-46.08 50.176-74.752 12.288-28.672 18.432-59.392 18.432-91.136 0-31.744-6.144-62.464-18.432-91.136-12.288-27.648-28.672-53.248-50.176-74.752-21.504-21.504-46.08-37.888-74.752-50.176-28.672-11.264-59.392-17.408-91.136-17.408z" fill="#24B35D" p-id="2398"></path><path d="M532.48 445.44c-23.552 0-41.984-18.432-41.984-41.984 0-6.144 5.12-11.264 11.264-11.264 6.144 0 11.264 5.12 11.264 11.264 0 11.264 9.216 19.456 19.456 19.456 11.264 0 19.456-9.216 19.456-19.456 0-6.144 5.12-11.264 11.264-11.264 6.144 0 11.264 5.12 11.264 11.264 0 23.552-18.432 41.984-41.984 41.984z" fill="#24B35D" p-id="2399"></path><path d="M376.832 415.744c0 8.192 13.312 15.36 29.696 15.36 16.384 0 29.696-7.168 29.696-15.36s-13.312-15.36-29.696-15.36c-16.384 0-29.696 6.144-29.696 15.36zM629.76 415.744c0 8.192 13.312 15.36 29.696 15.36 16.384 0 29.696-7.168 29.696-15.36s-13.312-15.36-29.696-15.36c-16.384 0-29.696 6.144-29.696 15.36z" fill="#94F7B0" p-id="2400"></path><path d="M496.64 372.736c0 9.216-15.36-3.072-34.816-3.072s-34.816 12.288-34.816 3.072c0-9.216 15.36-28.672 34.816-28.672s34.816 19.456 34.816 28.672z m136.192 0c0 9.216-15.36-3.072-34.816-3.072s-34.816 12.288-34.816 3.072c0-9.216 15.36-28.672 34.816-28.672 19.456 1.024 34.816 19.456 34.816 28.672z" fill="#24B35D" p-id="2401"></path></svg>