<?xml version="1.0" standalone="no"?><!DOCTYPE svg PUBLIC "-//W3C//DTD SVG 1.1//EN" "http://www.w3.org/Graphics/SVG/1.1/DTD/svg11.dtd"><svg t="1498544067570" class="icon" style="" viewBox="0 0 5541 1024" version="1.1" xmlns="http://www.w3.org/2000/svg" p-id="1750" id="mx_n_1498544067572" xmlns:xlink="http://www.w3.org/1999/xlink" width="173.15625" height="32"><defs><style type="text/css"></style></defs><path d="M2340.570759 578.823386C2303.681123 578.823386 2273.825529 608.67898 2273.825529 645.568615c0 19.851626 8.597161 37.514883 22.196306 49.707221v61.586933c0 24.540986 20.007938 44.548924 44.548924 44.548924s44.548924-20.007938 44.548923-44.548924v-61.586933c13.599145-12.192337 22.196306-30.011907 22.196306-49.707221 0-36.889635-29.855595-66.74523-66.745229-66.745229M2652.256913 378.431385h-44.548923v-111.294154C2607.70799 119.57869 2488.129299 0 2340.570759 0s-267.137231 119.57869-267.137231 267.137231v111.294154h-44.548924C1967.453983 378.431385 1917.59045 428.294917 1917.59045 489.725538v422.980308c0 61.430621 49.863532 111.294154 111.294154 111.294154H2652.256913c61.430621 0 111.294154-49.863532 111.294154-111.294154V489.725538c0-61.430621-49.863532-111.294154-111.294154-111.294153M2340.570759 44.548924c123.017555 0 222.588307 99.727065 222.588307 222.588307v111.294154H2117.982452v-111.294154c0-123.017555 99.727065-222.588307 222.588307-222.588307m378.431384 868.156922c0 36.889635-29.855595 66.74523-66.74523 66.74523h-623.372309c-36.889635 0-66.74523-29.855595-66.74523-66.74523V489.725538c0-36.889635 29.855595-66.74523 66.74523-66.74523H2652.256913c36.889635 0 66.74523 29.855595 66.74523 66.74523v422.980308m0 0z" fill="#ffffff" p-id="1751"></path></svg>