<?xml version="1.0" standalone="no"?><!DOCTYPE svg PUBLIC "-//W3C//DTD SVG 1.1//EN" "http://www.w3.org/Graphics/SVG/1.1/DTD/svg11.dtd"><svg t="1498549868826" class="icon" style="" viewBox="0 0 1024 1024" version="1.1" xmlns="http://www.w3.org/2000/svg" p-id="1902" xmlns:xlink="http://www.w3.org/1999/xlink" width="32" height="32"><defs><style type="text/css"></style></defs><path d="M508.928 772.096c-34.816 0-67.584-7.168-99.328-20.48-30.72-13.312-57.344-31.744-80.896-55.296-23.552-23.552-41.984-51.2-55.296-80.896-13.312-31.744-20.48-65.536-20.48-99.328 0-34.816 7.168-67.584 20.48-99.328 13.312-30.72 31.744-57.344 55.296-80.896 23.552-23.552 51.2-41.984 80.896-55.296 31.744-13.312 65.536-20.48 99.328-20.48 34.816 0 67.584 7.168 99.328 20.48 30.72 13.312 57.344 31.744 80.896 55.296 23.552 23.552 41.984 51.2 55.296 80.896 13.312 31.744 20.48 65.536 20.48 99.328s-7.168 67.584-20.48 99.328c-13.312 30.72-31.744 57.344-55.296 80.896-23.552 23.552-51.2 41.984-80.896 55.296-30.72 13.312-64.512 20.48-99.328 20.48z m0-490.496c-31.744 0-62.464 6.144-91.136 18.432-27.648 12.288-53.248 28.672-74.752 50.176-21.504 21.504-37.888 46.08-50.176 74.752-12.288 28.672-18.432 59.392-18.432 91.136 0 31.744 6.144 62.464 18.432 91.136 12.288 27.648 28.672 53.248 50.176 74.752 21.504 21.504 46.08 37.888 74.752 50.176 28.672 12.288 59.392 18.432 91.136 18.432 31.744 0 62.464-6.144 91.136-18.432 27.648-12.288 53.248-28.672 74.752-50.176 21.504-21.504 37.888-46.08 50.176-74.752 12.288-28.672 18.432-59.392 18.432-91.136 0-31.744-6.144-62.464-18.432-91.136-12.288-27.648-28.672-53.248-50.176-74.752-21.504-21.504-46.08-37.888-74.752-50.176-28.672-12.288-59.392-18.432-91.136-18.432z" fill="#d4237a" p-id="1903"></path><path d="M423.936 345.088c0 11.264 11.264 20.48 24.576 20.48 13.312 0 24.576-9.216 24.576-20.48s-11.264-20.48-24.576-20.48c-13.312 0-24.576 9.216-24.576 20.48zM551.936 345.088c0 11.264 11.264 20.48 24.576 20.48s24.576-9.216 24.576-20.48-11.264-20.48-24.576-20.48-24.576 9.216-24.576 20.48z" fill="#d4237a" p-id="1904"></path><path d="M339.968 414.72c0 5.12 6.144 10.24 16.384 12.288 10.24 2.048 22.528 2.048 32.768-1.024 10.24-3.072 16.384-8.192 15.36-14.336 0-5.12-6.144-10.24-16.384-12.288-10.24-2.048-22.528-2.048-32.768 1.024-9.216 4.096-15.36 9.216-15.36 14.336zM619.52 403.456c0 5.12 6.144 10.24 16.384 12.288 10.24 2.048 22.528 2.048 32.768-1.024 10.24-3.072 16.384-8.192 15.36-14.336 0-5.12-6.144-10.24-16.384-12.288-10.24-2.048-22.528-2.048-32.768 1.024-10.24 4.096-15.36 9.216-15.36 14.336z" fill="#d4237a" p-id="1905"></path><path d="M440.32 384v8.192c1.024 36.864 32.768 65.536 69.632 64.512h10.24c36.864-1.024 65.536-32.768 64.512-69.632 0-3.072 0-5.12-1.024-8.192l-143.36 5.12z" fill="#d4237a" p-id="1906"></path><path d="M507.904 417.792c-15.36 0-27.648 12.288-33.792 30.72 10.24 6.144 22.528 9.216 35.84 9.216h10.24c11.264 0 22.528-4.096 31.744-9.216-8.192-18.432-21.504-30.72-36.864-29.696l-7.168-1.024z" fill="#d4237a" p-id="1907"></path></svg>