<?xml version="1.0" standalone="no"?><!DOCTYPE svg PUBLIC "-//W3C//DTD SVG 1.1//EN" "http://www.w3.org/Graphics/SVG/1.1/DTD/svg11.dtd"><svg t="1498546523956" class="icon" style="" viewBox="0 0 3927 1024" version="1.1" xmlns="http://www.w3.org/2000/svg" p-id="2425" xmlns:xlink="http://www.w3.org/1999/xlink" width="122.71875" height="32"><defs><style type="text/css"></style></defs><path d="M1783.735906 1024H1307.615958c-45.225554 0-81.940026-36.714472-81.940026-81.940026v-860.119948c0-45.225554 36.881356-81.940026 81.940026-81.940026h476.119948c45.225554 0 81.940026 36.881356 81.940026 81.940026v860.119948c0.166884 45.225554-36.714472 81.940026-81.940026 81.940026z m-491.640156-975.603651c-10.013038 0-18.023468 8.01043-18.023468 18.023468v891.160366c0 10.013038 8.01043 18.023468 18.023468 18.023468h507.160365c10.013038 0 18.023468-8.01043 18.023468-18.023468v-891.160366c0-10.013038-8.01043-18.023468-18.023468-18.023468h-507.160365z m445.580182 719.603651H1353.675932v-640.166884h384v640.166884z m-335.436766-48.563233h287.040417v-543.207302h-287.040417v543.207302zM1501.034472 883.817471c0-24.865711 20.19296-45.05867 45.05867-45.05867s45.05867 20.19296 45.05867 45.05867-20.19296 45.05867-45.05867 45.05867-45.05867-20.19296-45.05867-45.05867z" fill="#ffffff" p-id="2426"></path></svg>