<?xml version="1.0" standalone="no"?><!DOCTYPE svg PUBLIC "-//W3C//DTD SVG 1.1//EN" "http://www.w3.org/Graphics/SVG/1.1/DTD/svg11.dtd"><svg t="1498546537694" class="icon" style="" viewBox="0 0 7688 1024" version="1.1" xmlns="http://www.w3.org/2000/svg" p-id="2746" xmlns:xlink="http://www.w3.org/1999/xlink" width="240.25" height="32"><defs><style type="text/css"></style></defs><path d="M3412.336382 1024c7.199648 0 13.949319-3.599824 18.299107-9.749524 17.999121-25.348762 40.198037-53.2474 80.696059-85.795811 30.298521-24.298814 86.095796-49.647576 106.344808-55.797275 217.339388-67.496704 357.732533-231.138714 357.732532-416.829647 0-119.694156-58.497144-233.388604-164.991944-320.234364C3703.472166 48.147649 3562.029073 0 3412.486375 0s-291.135784 48.147649-398.230555 135.593379c-106.4948 86.695767-164.991944 200.540208-164.991944 320.234364 0 185.690933 140.843123 349.482935 358.932474 417.129632 12.449392 3.749817 50.247547 15.449246 85.345833 65.696792 4.349788 6.299692 11.099458 9.899517 18.449099 9.899517 4.949758 0 9.599531-1.649919 13.649333-4.799766 10.349495-8.099605 12.449392-23.54885 4.799766-34.498315-44.247839-63.446902-94.195401-78.746155-110.544602-83.845906-197.240369-61.197012-324.584151-206.23993-324.584152-369.581954 0-106.794785 53.847371-208.339827 151.942581-285.736048 98.395196-77.846199 228.13886-120.744104 365.232167-120.744105s266.836971 42.897905 365.232166 120.744105C3875.663759 247.487916 3929.661122 349.032957 3929.661122 455.827743c0 163.192032-127.343782 308.234949-324.584151 369.581954-24.448806 7.649626-85.795811 35.398272-121.04409 63.746887-45.147796 36.148235-70.796543 68.546653-89.845613 95.395342-7.649626 10.949465-5.699722 26.398711 4.49978 34.648308 3.89981 2.999854 8.699575 4.799766 13.649334 4.799766z" fill="#ffffff" p-id="2747"></path><path d="M3412.336382 460.777501z m-51.147503 0c0 28.348616 22.948879 51.147503 51.147503 51.147503 28.348616 0 51.147503-22.948879 51.147503-51.147503 0-28.348616-22.948879-51.147503-51.147503-51.147502S3361.188879 432.578878 3361.188879 460.777501M3668.37388 460.777501z m-51.147502 0c0 28.348616 22.948879 51.147503 51.147502 51.147503 28.348616 0 51.147503-22.948879 51.147503-51.147503 0-28.348616-22.948879-51.147503-51.147503-51.147502S3617.226378 432.578878 3617.226378 460.777501M3156.448877 460.777501z m-51.297496 0c0 28.348616 22.948879 51.147503 51.147503 51.147503 28.348616 0 51.147503-22.948879 51.147502-51.147503 0-28.348616-22.948879-51.147503-51.147502-51.147502s-51.147503 22.948879-51.147503 51.147502" fill="#ffffff" p-id="2748"></path></svg>