<?xml version="1.0" standalone="no"?><!DOCTYPE svg PUBLIC "-//W3C//DTD SVG 1.1//EN" "http://www.w3.org/Graphics/SVG/1.1/DTD/svg11.dtd"><svg t="1498549823649" class="icon" style="" viewBox="0 0 1024 1024" version="1.1" xmlns="http://www.w3.org/2000/svg" p-id="773" xmlns:xlink="http://www.w3.org/1999/xlink" width="32" height="32"><defs><style type="text/css"></style></defs><path d="M515.072 423.936c-24.576 0-44.032-19.456-44.032-44.032 0-6.144 5.12-11.264 11.264-11.264 6.144 0 11.264 5.12 11.264 11.264 0 11.264 9.216 20.48 20.48 20.48s20.48-9.216 20.48-20.48c0-6.144 5.12-11.264 11.264-11.264s11.264 5.12 11.264 11.264c2.048 24.576-17.408 44.032-41.984 44.032z" fill="#d4237a" p-id="774"></path><path d="M351.232 392.192c0 9.216 14.336 16.384 30.72 16.384s30.72-7.168 30.72-16.384-14.336-16.384-30.72-16.384-30.72 8.192-30.72 16.384zM617.472 392.192c0 9.216 14.336 16.384 30.72 16.384s30.72-7.168 30.72-16.384-14.336-16.384-30.72-16.384-30.72 8.192-30.72 16.384z" fill="#d4237a" p-id="775"></path><path d="M477.184 348.16c0 9.216-16.384-3.072-36.864-3.072s-36.864 12.288-36.864 3.072c0-9.216 16.384-29.696 36.864-29.696s36.864 19.456 36.864 29.696z m143.36 0c0 9.216-16.384-3.072-36.864-3.072s-36.864 12.288-36.864 3.072c0-9.216 16.384-29.696 36.864-29.696s36.864 19.456 36.864 29.696z" fill="#d4237a" p-id="776"></path><path d="M515.072 248.832C366.592 248.832 245.76 368.64 245.76 518.144s120.832 269.312 269.312 269.312 269.312-120.832 269.312-269.312-119.808-269.312-269.312-269.312z m0 515.072c-136.192 0-245.76-110.592-245.76-245.76 0-136.192 110.592-245.76 245.76-245.76s245.76 110.592 245.76 245.76c1.024 135.168-109.568 245.76-245.76 245.76z" fill="#d4237a" p-id="777"></path></svg>