<?xml version="1.0" standalone="no"?><!DOCTYPE svg PUBLIC "-//W3C//DTD SVG 1.1//EN" "http://www.w3.org/Graphics/SVG/1.1/DTD/svg11.dtd"><svg t="1498545896951" class="icon" style="" viewBox="0 0 8353 1024" version="1.1" xmlns="http://www.w3.org/2000/svg" p-id="2152" xmlns:xlink="http://www.w3.org/1999/xlink" width="391.546875" height="48"><defs><style type="text/css"></style></defs><path d="M3956.294806 90.875C3895.794806 32.375 3815.419806 0 3729.919806 0c-85.375 0-165.75 32.375-226.125 90.875-60.375 58.625-93.625 136.5-93.625 219.375s33.25 160.75 93.625 219.375c21.25 20.875 45.5 38.5 71.75 52.5-67.625 21.125-130.375 55.625-184.375 101.5-93.75 79.75-155.125 187.875-172.75 304.875-2.5 17 9.5 32.75 27.125 35.125 1.5 0.25 2.875 0.375 4.5 0.375 15.625 0 29.375-11.125 31.625-26.625C3313.919806 782.625 3506.794806 620.625 3729.919806 620.625c85.5 0 165.875-32.25 226.375-90.875 60.5-58.625 93.75-136.5 93.75-219.375 0-83-33.25-160.75-93.75-219.5zM3729.919806 558.625c-141 0-255.875-111.375-255.875-248.25s114.875-248.25 255.875-248.25c141.25 0 256.125 111.375 256.125 248.25C3985.919806 447.125 3871.169806 558.625 3729.919806 558.625z m507.625 429.75c-7.375-53-23.625-104.5-47.875-152.125-23.875-46.875-55-89.75-92.25-126.875-12.375-12.375-32.625-12.625-45.375-0.75-12.625 11.875-12.875 31.625-0.625 43.875 67.25 67.25 109.75 151.75 122.5 244.25 2.125 15.5 15.875 26.875 31.75 26.875 1.375 0 2.875-0.125 4.25-0.25 17.625-2.375 29.875-18.125 27.625-35z m0 0z" fill="#ffffff" p-id="2153"></path></svg>