<?xml version="1.0" standalone="no"?><!DOCTYPE svg PUBLIC "-//W3C//DTD SVG 1.1//EN" "http://www.w3.org/Graphics/SVG/1.1/DTD/svg11.dtd"><svg t="1498546554672" class="icon" style="" viewBox="0 0 4782 1024" version="1.1" xmlns="http://www.w3.org/2000/svg" p-id="3260" xmlns:xlink="http://www.w3.org/1999/xlink" width="149.4375" height="32"><defs><style type="text/css"></style></defs><path d="M2324.62925 427.36438H1802.800597v-178.917882c0-109.389264 89.549947-198.757199 198.757199-198.757198 109.389264 0 198.757199 89.549947 198.757199 198.757198v79.539282s4.914326 14.924991 24.935656 14.924991c19.839317 0 24.935656-14.924991 24.935655-14.924991v-79.539282C2250.004294 109.389264 2135.700704 0 2001.557796 0S1753.111298 114.30359 1753.111298 248.446498V427.36438h-129.228582c-39.678635 0-74.624956 34.764309-74.624956 74.624955v447.385709c0 39.678635 34.764309 74.624956 74.624956 74.624956h700.746534c39.678635 0 74.624956-34.764309 74.624955-74.624956V501.989335c-0.182012-39.678635-34.946321-74.624956-74.624955-74.624955z m24.753644 522.010664c0 14.924991-10.010665 24.935656-24.935656 24.935656h-700.746534c-14.924991 0-24.935656-10.010665-24.935656-24.935656V501.989335c0-14.924991 10.010665-24.935656 24.935656-24.935656h700.746534c14.924991 0 24.935656 10.010665 24.935656 24.935656v447.385709z" fill="#ffffff" p-id="3261"></path></svg>