<?xml version="1.0" standalone="no"?><!DOCTYPE svg PUBLIC "-//W3C//DTD SVG 1.1//EN" "http://www.w3.org/Graphics/SVG/1.1/DTD/svg11.dtd"><svg t="1498549874300" class="icon" style="" viewBox="0 0 1024 1024" version="1.1" xmlns="http://www.w3.org/2000/svg" p-id="2083" xmlns:xlink="http://www.w3.org/1999/xlink" width="32" height="32"><defs><style type="text/css"></style></defs><path d="M508.928 772.096c-34.816 0-67.584-7.168-99.328-20.48-30.72-13.312-57.344-31.744-80.896-55.296-23.552-23.552-41.984-51.2-55.296-80.896-13.312-31.744-20.48-65.536-20.48-99.328 0-34.816 7.168-67.584 20.48-99.328 13.312-30.72 31.744-57.344 55.296-80.896 23.552-23.552 51.2-41.984 80.896-55.296 31.744-13.312 65.536-20.48 99.328-20.48 34.816 0 67.584 7.168 99.328 20.48 30.72 13.312 57.344 31.744 80.896 55.296 23.552 23.552 41.984 51.2 55.296 80.896 13.312 31.744 20.48 65.536 20.48 99.328s-7.168 67.584-20.48 99.328c-13.312 30.72-31.744 57.344-55.296 80.896-23.552 23.552-51.2 41.984-80.896 55.296-30.72 13.312-64.512 20.48-99.328 20.48z m0-490.496c-31.744 0-62.464 6.144-91.136 18.432-27.648 12.288-53.248 28.672-74.752 50.176-21.504 21.504-37.888 46.08-50.176 74.752-12.288 28.672-18.432 59.392-18.432 91.136 0 31.744 6.144 62.464 18.432 91.136 12.288 27.648 28.672 53.248 50.176 74.752 21.504 21.504 46.08 37.888 74.752 50.176 28.672 12.288 59.392 18.432 91.136 18.432 31.744 0 62.464-6.144 91.136-18.432 27.648-12.288 53.248-28.672 74.752-50.176 21.504-21.504 37.888-46.08 50.176-74.752 12.288-28.672 18.432-59.392 18.432-91.136 0-31.744-6.144-62.464-18.432-91.136-12.288-27.648-28.672-53.248-50.176-74.752-21.504-21.504-46.08-37.888-74.752-50.176-28.672-12.288-59.392-18.432-91.136-18.432z" fill="#d4237a" p-id="2084"></path><path d="M336.896 422.912c0 8.192 15.36 15.36 32.768 14.336s31.744-8.192 31.744-16.384-15.36-15.36-32.768-14.336c-18.432 1.024-32.768 8.192-31.744 16.384zM616.448 411.648c0 8.192 15.36 15.36 32.768 14.336 17.408-1.024 31.744-8.192 31.744-16.384s-15.36-15.36-32.768-14.336c-18.432 1.024-31.744 8.192-31.744 16.384z" fill="#d4237a" p-id="2085"></path><path d="M450.56 324.608c-6.144 0-11.264 2.048-14.336 6.144-4.096-4.096-9.216-6.144-14.336-6.144-11.264 0-19.456 9.216-19.456 19.456 0 11.264 28.672 36.864 33.792 36.864s33.792-25.6 33.792-36.864c0-10.24-9.216-19.456-19.456-19.456z m138.24 0c-6.144 0-11.264 2.048-14.336 6.144-4.096-4.096-9.216-6.144-14.336-6.144-11.264 0-19.456 9.216-19.456 19.456 0 11.264 28.672 36.864 33.792 36.864s33.792-25.6 33.792-36.864c0-10.24-9.216-19.456-19.456-19.456zM505.856 440.32c-4.096 0-7.168-3.072-8.192-7.168-1.024-4.096 3.072-8.192 7.168-9.216 8.192-1.024 12.288-2.048 14.336-3.072-3.072-2.048-8.192-6.144-13.312-8.192-3.072-1.024-4.096-4.096-5.12-6.144 0-3.072 1.024-6.144 3.072-7.168 6.144-4.096 9.216-7.168 10.24-9.216-1.024-1.024-5.12-1.024-8.192-1.024-4.096 0-8.192-4.096-8.192-8.192s4.096-8.192 8.192-8.192c5.12 0 21.504 1.024 25.6 12.288 2.048 7.168-2.048 14.336-8.192 19.456 4.096 2.048 14.336 9.216 13.312 19.456-1.024 11.264-16.384 14.336-30.72 16.384 1.024 0 0 0 0 0z" fill="#d4237a" p-id="2086"></path></svg>